<svg xmlns="http://www.w3.org/2000/svg" width="13.418" height="18.003" viewBox="0 0 13.418 18.003">
  <g id="rubbish-bin" transform="translate(-52.016)">
    <g id="Group_24" data-name="Group 24" transform="translate(52.016)">
      <path id="Path_56" data-name="Path 56" d="M74.647,112.219a.906.906,0,0,0,.905.868H84.01a.906.906,0,0,0,.905-.868l.6-12.751H74.043Zm7.047-9.584a.368.368,0,0,1,.368-.368h.589a.368.368,0,0,1,.368.368v7.285a.368.368,0,0,1-.368.368h-.589a.368.368,0,0,1-.368-.368Zm-2.576,0a.368.368,0,0,1,.368-.368h.589a.368.368,0,0,1,.368.368v7.285a.368.368,0,0,1-.368.368h-.589a.368.368,0,0,1-.368-.368v-7.285Zm-2.576,0a.368.368,0,0,1,.368-.368H77.5a.368.368,0,0,1,.368.368v7.285a.368.368,0,0,1-.368.368h-.589a.368.368,0,0,1-.368-.368Z" transform="translate(-73.072 -95.084)" fill="#616161"/>
      <path id="Path_57" data-name="Path 57" d="M64.865.927h-3.9V.19a.19.19,0,0,0-.19-.19h-4.1a.19.19,0,0,0-.19.19V.927h-3.9a.569.569,0,0,0-.569.569V3.282H65.434V1.5A.569.569,0,0,0,64.865.927Z" transform="translate(-52.016)" fill="#616161"/>
    </g>
  </g>
</svg>
