<svg id="select-all" xmlns="http://www.w3.org/2000/svg" width="18" height="18" viewBox="0 0 18 18">
  <g id="Group_26" data-name="Group 26">
    <g id="Group_25" data-name="Group 25">
      <rect id="Rectangle_24" data-name="Rectangle 24" width="2" height="2" transform="translate(0 4)" fill="#616161"/>
      <rect id="Rectangle_25" data-name="Rectangle 25" width="2" height="2" transform="translate(0 8)" fill="#616161"/>
      <path id="Path_58" data-name="Path 58" d="M0,2H2V0A2,2,0,0,0,0,2Z" fill="#616161"/>
      <rect id="Rectangle_26" data-name="Rectangle 26" width="2" height="2" transform="translate(0 12)" fill="#616161"/>
      <path id="Path_59" data-name="Path 59" d="M341.333,0V2h2A2,2,0,0,0,341.333,0Z" transform="translate(-325.333)" fill="#616161"/>
      <rect id="Rectangle_27" data-name="Rectangle 27" width="2" height="2" transform="translate(8)" fill="#616161"/>
      <path id="Path_60" data-name="Path 60" d="M2,343.333v-2H0A2,2,0,0,0,2,343.333Z" transform="translate(0 -325.333)" fill="#616161"/>
      <rect id="Rectangle_28" data-name="Rectangle 28" width="2" height="2" transform="translate(4 16)" fill="#616161"/>
      <rect id="Rectangle_29" data-name="Rectangle 29" width="2" height="2" transform="translate(4)" fill="#616161"/>
      <path id="Path_61" data-name="Path 61" d="M341.333,343.333a2,2,0,0,0,2-2h-2Z" transform="translate(-325.333 -325.333)" fill="#616161"/>
      <rect id="Rectangle_30" data-name="Rectangle 30" width="2" height="2" transform="translate(16 8)" fill="#616161"/>
      <rect id="Rectangle_31" data-name="Rectangle 31" width="2" height="2" transform="translate(8 16)" fill="#616161"/>
      <rect id="Rectangle_32" data-name="Rectangle 32" width="2" height="2" transform="translate(16 4)" fill="#616161"/>
      <rect id="Rectangle_33" data-name="Rectangle 33" width="2" height="2" transform="translate(16 12)" fill="#616161"/>
      <rect id="Rectangle_34" data-name="Rectangle 34" width="2" height="2" transform="translate(12 16)" fill="#616161"/>
      <rect id="Rectangle_35" data-name="Rectangle 35" width="2" height="2" transform="translate(12)" fill="#616161"/>
    </g>
  </g>
</svg>
