<svg xmlns="http://www.w3.org/2000/svg" width="18" height="18.432" viewBox="0 0 18 18.432">
  <g id="Group_8" data-name="Group 8" transform="translate(-918 -204)">
    <g id="Rectangle_20" data-name="Rectangle 20" transform="translate(918 204)" fill="#fff" stroke="#616161" stroke-width="1">
      <rect width="18" height="15" stroke="none"/>
      <rect x="0.5" y="0.5" width="17" height="14" fill="none"/>
    </g>
    <rect id="Rectangle_21" data-name="Rectangle 21" width="12" height="2" transform="translate(921 207)" fill="#616161"/>
    <rect id="Rectangle_22" data-name="Rectangle 22" width="12" height="2" transform="translate(921 210)" fill="#616161"/>
    <rect id="Rectangle_23" data-name="Rectangle 23" width="12" height="2" transform="translate(921 213)" fill="#616161"/>
    <g id="Path_17" data-name="Path 17" transform="translate(15 -70.731)" fill="#616161">
      <path d="M 912.2322998046875 291.3189392089844 C 910.0169067382812 291.3189392089844 907.8923950195312 290.2491149902344 905.9177856445312 288.1391296386719 L 905.618408203125 287.8192443847656 L 905.8961791992188 287.48046875 C 906.0061645507812 287.3462829589844 908.6337280273438 284.1944580078125 912.4002685546875 284.1944580078125 C 914.6220092773438 284.1944580078125 916.7462158203125 285.2936401367188 918.7138671875 287.46142578125 L 919.3326416015625 288.1431274414062 L 918.5927734375 288.2635192871094 C 917.808837890625 289.0950012207031 915.4124145507812 291.3189392089844 912.2322998046875 291.3189392089844 Z" stroke="none"/>
      <path d="M 912.2322998046875 290.8189392089844 C 915.798583984375 290.8189392089844 918.3259887695312 287.8003540039062 918.3436279296875 287.7974853515625 C 916.2310180664062 285.4699401855469 914.1871948242188 284.6944580078125 912.4002685546875 284.6944580078125 C 908.8270263671875 284.6944580078125 906.2828369140625 287.7974853515625 906.2828369140625 287.7974853515625 C 908.4039306640625 290.06396484375 910.4478149414062 290.8189392089844 912.2322998046875 290.8189392089844 M 912.2322998046875 291.8189392089844 C 909.8729858398438 291.8189392089844 907.6256713867188 290.6958312988281 905.5526733398438 288.4807739257812 L 904.9539794921875 287.8410339355469 L 905.509521484375 287.1634521484375 C 905.6256713867188 287.0217895507812 908.3997802734375 283.6944580078125 912.4002685546875 283.6944580078125 C 914.7689208984375 283.6944580078125 917.0177001953125 284.8488159179688 919.0841064453125 287.1253662109375 L 920.3218994140625 288.4891052246094 L 918.837646484375 288.7303161621094 C 917.9072875976562 289.682861328125 915.4591064453125 291.8189392089844 912.2322998046875 291.8189392089844 Z" stroke="none" fill="#fff"/>
    </g>
    <ellipse id="Ellipse_11" data-name="Ellipse 11" cx="2.307" cy="2.307" rx="2.307" ry="2.307" transform="translate(925.145 214.724)" fill="#fff"/>
    <ellipse id="Ellipse_12" data-name="Ellipse 12" cx="1.648" cy="1.648" rx="1.648" ry="1.648" transform="translate(925.804 215.383)" fill="#616161"/>
    <ellipse id="Ellipse_13" data-name="Ellipse 13" cx="0.659" cy="0.659" rx="0.659" ry="0.659" transform="translate(926.793 215.713)" fill="#fff"/>
    <g id="Path_18" data-name="Path 18" transform="translate(931.323 212.629) rotate(47)" fill="#616161">
      <path d="M 1.119471669197083 11.58023643493652 C 0.8778258562088013 11.58023643493652 0.6586883664131165 11.45872402191162 0.451020210981369 11.20914554595947 C 0.02302437834441662 8.661300659179688 0.4056819081306458 1.51945424079895 0.4592846930027008 0.5678402781486511 C 0.5909678936004639 0.4619823098182678 0.8981707096099854 0.2499959617853165 1.246411681175232 0.2499959617853165 C 1.491687655448914 0.2499959617853165 1.713827013969421 0.3532740473747253 1.923666596412659 0.565308690071106 C 2.35035228729248 3.131348133087158 1.964429616928101 10.29623603820801 1.91306209564209 11.20580863952637 C 1.786875367164612 11.32336235046387 1.470906376838684 11.58023643493652 1.119471669197083 11.58023643493652 Z" stroke="none"/>
      <path d="M 1.246411681175232 0.4999961853027344 C 1.042482376098633 0.4999961853027344 0.8382542133331299 0.6050796508789062 0.7024519443511963 0.6976327896118164 C 0.6315031051635742 1.98873233795166 0.2943222522735596 8.607246398925781 0.6862919330596924 11.09844398498535 C 0.8996275663375854 11.33024406433105 1.062091588973999 11.33023643493652 1.119471669197083 11.33023643493652 C 1.323575735092163 11.33023643493652 1.53473699092865 11.19753360748291 1.669247388839722 11.0880126953125 C 1.737280011177063 9.855259895324707 2.078718423843384 3.211682319641113 1.690200209617615 0.6883916854858398 C 1.547219038009644 0.5618324279785156 1.401115417480469 0.4999961853027344 1.246411681175232 0.4999961853027344 M 1.246412038803101 -2.86102294921875e-06 C 1.534065008163452 -2.86102294921875e-06 1.851577758789062 0.1120481491088867 2.157191753387451 0.4483661651611328 C 2.64255166053772 3.165136337280273 2.157181739807129 11.31541633605957 2.157181739807129 11.31541633605957 C 2.157181739807129 11.31541633605957 1.694674968719482 11.83023357391357 1.119473576545715 11.83023357391357 C 0.8318201303482056 11.83023357391357 0.5160616636276245 11.70157623291016 0.2157115936279297 11.31541633605957 C -0.2696483135223389 8.598655700683594 0.215721607208252 0.4483661651611328 0.215721607208252 0.4483661651611328 C 0.215721607208252 0.4483661651611328 0.6712113618850708 -2.86102294921875e-06 1.246412038803101 -2.86102294921875e-06 Z" stroke="none" fill="#fff"/>
    </g>
  </g>
</svg>
