<svg xmlns="http://www.w3.org/2000/svg" width="17.828" height="18" viewBox="0 0 17.828 18">
  <g id="Group_22" data-name="Group 22" transform="translate(-0.1)">
    <path id="Path_36" data-name="Path 36" d="M0,0H12V11s0,.988-.857,1C8.7,12,3.345,12,.95,12A.963.963,0,0,1,0,11Z" transform="translate(3 6)" fill="#616161"/>
    <g id="Group_13" data-name="Group 13" transform="translate(-879.94 -176.526)">
      <path id="Path_13" data-name="Path 13" d="M906.283,287.092s4.423-5.4,9.32,0C915.583,287.1,911.2,292.344,906.283,287.092Z" transform="translate(-22 -98.624)" fill="#fff"/>
      <path id="Path_19" data-name="Path 19" d="M1.783,0A1.783,1.783,0,1,1,0,1.783,1.783,1.783,0,0,1,1.783,0Z" transform="translate(887.268 186.658)" fill="#616161"/>
      <ellipse id="Ellipse_3" data-name="Ellipse 3" cx="1.274" cy="1.274" rx="1.274" ry="1.274" transform="translate(887.777 187.167)" fill="#fff"/>
      <ellipse id="Ellipse_4" data-name="Ellipse 4" cx="0.509" cy="0.509" rx="0.509" ry="0.509" transform="translate(888.541 187.422)" fill="#616161"/>
    </g>
    <path id="Path_27" data-name="Path 27" d="M1027.277,123h.667v1.053l2.983-5.129-.8-.568Z" transform="translate(-1013 -117)" fill="#616161"/>
    <path id="Path_30" data-name="Path 30" d="M1030.927,123h-.667v1.053l-2.983-5.129.8-.568Z" transform="translate(-1027.177 -117)" fill="#616161"/>
    <g id="Path_29" data-name="Path 29" transform="matrix(0.819, 0.574, -0.574, 0.819, 10.904, 8.45)" fill="#f7f7f7">
      <path d="M 0.6906197667121887 8.464078903198242 C 0.4602141976356506 8.464078903198242 0.2709179818630219 8.198337554931641 0.1483838111162186 7.962729930877686 C 0.1440278142690659 7.507192611694336 0.1467733532190323 2.670984983444214 0.1489400714635849 0.04808096960186958 C 0.2576953172683716 -0.09693396836519241 0.5229311585426331 -0.3769413232803345 0.7906697988510132 -0.3769413232803345 C 0.980034351348877 -0.3769413232803345 1.160574197769165 -0.2360935658216476 1.327653408050537 0.04186267033219337 C 1.333825945854187 0.6591801047325134 1.327644348144531 7.365487575531006 1.32707953453064 7.958598613739014 C 1.223521947860718 8.125224113464355 0.9577161073684692 8.464078903198242 0.6906197667121887 8.464078903198242 Z" stroke="none"/>
      <path d="M 0.7906697988510132 -0.2269411087036133 C 0.6154449582099915 -0.2269411087036133 0.4105949401855469 -0.03624916076660156 0.298897385597229 0.09995460510253906 C 0.2967852354049683 2.673544406890869 0.2941596508026123 7.308803081512451 0.2980755567550659 7.924870491027832 C 0.432321310043335 8.173166275024414 0.5737194418907166 8.314078330993652 0.6906197667121887 8.314078330993652 C 0.8487643599510193 8.314078330993652 1.057940721511841 8.094215393066406 1.177121877670288 7.914741039276123 C 1.179568290710449 5.370986938476562 1.182596921920776 0.7628378868103027 1.178020477294922 0.085052490234375 C 1.079882383346558 -0.06952190399169922 0.9426227807998657 -0.2269411087036133 0.7906697988510132 -0.2269411087036133 M 0.7906656861305237 -0.5269393920898438 C 1.009659051895142 -0.5269393920898438 1.249632000923157 -0.3952531814575195 1.477039813995361 -9.5367431640625e-07 C 1.484559774398804 0.2797088623046875 1.477039813995361 7.999998569488525 1.477039813995361 7.999998569488525 C 1.477039813995361 7.999998569488525 1.128522157669067 8.614083290100098 0.6906161308288574 8.614083290100098 C 0.4716229438781738 8.614083290100098 0.2303346395492554 8.460618019104004 -0.001020193099975586 7.999998569488525 C -0.007540225982666016 7.822268486022949 -0.001020193099975586 -9.5367431640625e-07 -0.001020193099975586 -9.5367431640625e-07 C -0.001020193099975586 -9.5367431640625e-07 0.3527590036392212 -0.5269393920898438 0.7906656861305237 -0.5269393920898438 Z" stroke="none" fill="#616161"/>
    </g>
    <path id="Path_54" data-name="Path 54" d="M1020.52,123.288h2.205v-2.137h1.139l-2.216-2.857-2.293,2.857h1.164Z" transform="translate(-1016 -118.294)" fill="#616161"/>
    <path id="Path_55" data-name="Path 55" d="M1020.52,123.288h2.205v-2.137h1.139l-2.216-2.857-2.293,2.857h1.164Z" transform="translate(-1009.588 -118.294)" fill="#616161"/>
  </g>
</svg>
