<svg xmlns="http://www.w3.org/2000/svg" width="18.013" height="14.187" viewBox="0 0 18.013 14.187">
  <g id="Group_17" data-name="Group 17" transform="translate(-899.254 -117.964)">
    <g id="Group_10" data-name="Group 10" transform="translate(899.254 117.964)">
      <path id="Path_14" data-name="Path 14" d="M906.283,289.329s8.548-10.427,18.013,0C924.256,289.335,915.782,299.479,906.283,289.329Z" transform="translate(-906.283 -282.452)" fill="#616161"/>
      <ellipse id="Ellipse_5" data-name="Ellipse 5" cx="3.446" cy="3.446" rx="3.446" ry="3.446" transform="translate(5.768 3.378)" fill="#fff"/>
      <ellipse id="Ellipse_6" data-name="Ellipse 6" cx="2.461" cy="2.461" rx="2.461" ry="2.461" transform="translate(6.753 4.362)" fill="#616161"/>
      <ellipse id="Ellipse_7" data-name="Ellipse 7" cx="0.985" cy="0.985" rx="0.985" ry="0.985" transform="translate(8.23 4.855)" fill="#fff"/>
      <g id="Path_15" data-name="Path 15" transform="translate(15.067 0) rotate(47)" fill="#616161">
        <path d="M 1.135450482368469 17.97160720825195 C 0.8526676893234253 17.97160720825195 0.6161707639694214 17.64471817016602 0.4618145823478699 17.35402488708496 C 0.005618168972432613 13.36093139648438 0.4263335764408112 1.820582866668701 0.4657496809959412 0.7753700613975525 C 0.6066288948059082 0.5904884338378906 0.9342121481895447 0.2500065267086029 1.26421046257019 0.2500065267086029 C 1.499017953872681 0.2500065267086029 1.728217601776123 0.4262565672397614 1.945971250534058 0.7740576863288879 C 2.401895046234131 4.786184787750244 1.978052496910095 16.36421775817871 1.940710783004761 17.35238456726074 C 1.801995158195496 17.56319427490234 1.465235233306885 17.97160720825195 1.135450482368469 17.97160720825195 Z" stroke="none"/>
        <path d="M 1.26421046257019 0.5000057220458984 C 1.088709831237793 0.5000057220458984 0.858885645866394 0.6935577392578125 0.7125074863433838 0.8667697906494141 C 0.6587433815002441 2.315221786499023 0.2689192295074463 13.34707927703857 0.7048155069351196 17.27781105041504 C 0.8847676515579224 17.60323905944824 1.043359398841858 17.72159576416016 1.135450482368469 17.72159576416016 C 1.298040866851807 17.72159576416016 1.543194055557251 17.48016548156738 1.693593740463257 17.27076721191406 C 1.744566082954407 15.90185737609863 2.138402462005615 4.824891090393066 1.704044342041016 0.8603134155273438 C 1.596018671989441 0.6979637145996094 1.430230140686035 0.5000057220458984 1.26421046257019 0.5000057220458984 M 1.264206409454346 1.9073486328125e-06 C 1.555966377258301 1.9073486328125e-06 1.878012657165527 0.1725902557373047 2.187990427017212 0.6906070709228516 C 2.680280447006226 4.875116348266602 2.18798041343689 17.42864608764648 2.18798041343689 17.42864608764648 C 2.18798041343689 17.42864608764648 1.718865394592285 18.22160148620605 1.135451316833496 18.22160148620605 C 0.8436908721923828 18.22160148620605 0.5234276056289673 18.02343940734863 0.2187905311584473 17.42865562438965 C -0.2734994888305664 13.2441463470459 0.2188005447387695 0.6906070709228516 0.2188005447387695 0.6906070709228516 C 0.2188005447387695 0.6906070709228516 0.6807931661605835 1.9073486328125e-06 1.264206409454346 1.9073486328125e-06 Z" stroke="none" fill="#fff"/>
      </g>
    </g>
  </g>
</svg>
