<svg xmlns="http://www.w3.org/2000/svg" width="13.17" height="18" viewBox="0 0 13.17 18">
  <path id="Path_11" data-name="Path 11" d="M591.252,173.756h2.568v3.839l-3.217,3.073a5.417,5.417,0,0,0-1.381,5.073c.083.052,3.468,0,3.468,0v-1.055a2.742,2.742,0,0,1,.875-2c.918-.8,2.163-1.873,2.163-1.873l2.033,1.873a2.814,2.814,0,0,1,.921,2.123c-.009.037,0,.928,0,.928h3.565s.365-3.58-1.638-5.223a32.652,32.652,0,0,0-3.13-2.924v-3.839h2.5l-4.4-5.991Z" transform="translate(-589.102 -167.765)" fill="#616161"/>
</svg>
