<svg xmlns="http://www.w3.org/2000/svg" width="18" height="18" viewBox="0 0 18 18">
  <g id="Group_27" data-name="Group 27" transform="translate(0 0)">
    <g id="Group_1" data-name="Group 1" transform="translate(0 0)">
      <rect id="Rectangle_5" data-name="Rectangle 5" width="8.335" height="8.335" transform="translate(0 9.665)" fill="#616161"/>
      <path id="Exclusion_1" data-name="Exclusion 1" d="M8.335,8.335H0V0H8.335V8.335ZM2.43,2.43V5.906H5.906V2.43Z" fill="#616161"/>
      <g id="Rectangle_3" data-name="Rectangle 3" transform="translate(13.109 11.961)" fill="#616161" stroke="#616161" stroke-width="1">
        <rect width="1.778" height="1.778" stroke="none"/>
        <rect x="0.5" y="0.5" width="0.778" height="0.778" fill="none"/>
      </g>
      <g id="Rectangle_4" data-name="Rectangle 4" transform="translate(13.042 14.497)" fill="#616161" stroke="#616161" stroke-width="1">
        <rect width="1.778" height="1.778" stroke="none"/>
        <rect x="0.5" y="0.5" width="0.778" height="0.778" fill="none"/>
      </g>
      <path id="Path_2" data-name="Path 2" d="M329.965,69.143c-.021-.041-1.319-1.3-1.319-1.3l4.132-4.142,4.136,4.209s-1.208,1.327-1.268,1.235-1.972-2.128-1.972-2.128l.072,5.082h-1.751V67.084Z" transform="translate(-318.914 -61.077)" fill="#616161"/>
    </g>
  </g>
</svg>
