<svg xmlns="http://www.w3.org/2000/svg" width="17.828" height="18" viewBox="0 0 17.828 18">
  <g id="Group_22" data-name="Group 22" transform="translate(-0.1)">
    <path id="Path_42" data-name="Path 42" d="M0,0H12V11s0,.988-.857,1C8.7,12,3.345,12,.95,12A.963.963,0,0,1,0,11Z" transform="translate(3 6)" fill="#616161"/>
    <g id="Group_14" data-name="Group 14" transform="translate(-879.94 -176.526)">
      <path id="Path_13" data-name="Path 13" d="M906.283,287.092s4.423-5.4,9.32,0C915.583,287.1,911.2,292.344,906.283,287.092Z" transform="translate(-22 -98.624)" fill="#fff"/>
      <path id="Path_19" data-name="Path 19" d="M1.783,0A1.783,1.783,0,1,1,0,1.783,1.783,1.783,0,0,1,1.783,0Z" transform="translate(887.268 186.658)" fill="#616161"/>
      <ellipse id="Ellipse_3" data-name="Ellipse 3" cx="1.274" cy="1.274" rx="1.274" ry="1.274" transform="translate(887.777 187.167)" fill="#fff"/>
      <path id="Path_43" data-name="Path 43" d="M.509,0A.509.509,0,1,1,0,.509.509.509,0,0,1,.509,0Z" transform="translate(888.541 187.422)" fill="#616161"/>
    </g>
    <path id="Path_31" data-name="Path 31" d="M1027.277,123h.667v1.053l2.983-5.129-.8-.568Z" transform="translate(-1013 -117)" fill="#616161"/>
    <path id="Path_33" data-name="Path 33" d="M1030.927,123h-.667v1.053l-2.983-5.129.8-.568Z" transform="translate(-1027.177 -117)" fill="#616161"/>
    <path id="Path_32" data-name="Path 32" d="M1020.52,123.288h2.205v-2.137h1.139l-2.216-2.857-2.293,2.857h1.164Z" transform="translate(-1016 -118.294)" fill="#616161"/>
    <path id="Path_34" data-name="Path 34" d="M1020.52,123.288h2.205v-2.137h1.139l-2.216-2.857-2.293,2.857h1.164Z" transform="translate(-1009.588 -118.294)" fill="#616161"/>
  </g>
</svg>
