<svg xmlns="http://www.w3.org/2000/svg" width="18" height="9.092" viewBox="0 0 18 9.092">
  <g id="Group_18" data-name="Group 18" transform="translate(-921.283 -120.07)">
    <g id="Group_9" data-name="Group 9" transform="translate(921.283 120.07)">
      <path id="Path_13" data-name="Path 13" d="M906.283,289.3s8.542-10.365,18,0C924.243,289.307,915.775,299.39,906.283,289.3Z" transform="translate(-906.283 -284.694)" fill="#616161"/>
      <ellipse id="Ellipse_2" data-name="Ellipse 2" cx="3.452" cy="3.417" rx="3.452" ry="3.417" transform="translate(5.756 1.137)" fill="#fff"/>
      <path id="Path_48" data-name="Path 48" d="M2.465,0A2.448,2.448,0,0,1,4.931,2.431,2.448,2.448,0,0,1,2.465,4.861,2.448,2.448,0,0,1,0,2.431,2.448,2.448,0,0,1,2.465,0Z" transform="translate(6.742 2.123)" fill="#616161"/>
      <ellipse id="Ellipse_4" data-name="Ellipse 4" cx="0.986" cy="0.986" rx="0.986" ry="0.986" transform="translate(8.222 2.591)" fill="#fff"/>
    </g>
  </g>
</svg>
