<svg xmlns="http://www.w3.org/2000/svg" width="18" height="18.088" viewBox="0 0 18 18.088">
  <g id="Group_7" data-name="Group 7" transform="translate(-918 -183)">
    <g id="Rectangle_16" data-name="Rectangle 16" transform="translate(918 183)" fill="#fff" stroke="#616161" stroke-width="1">
      <rect width="18" height="15" stroke="none"/>
      <rect x="0.5" y="0.5" width="17" height="14" fill="none"/>
    </g>
    <rect id="Rectangle_17" data-name="Rectangle 17" width="12" height="2" transform="translate(921 186)" fill="#616161"/>
    <rect id="Rectangle_18" data-name="Rectangle 18" width="12" height="2" transform="translate(921 189)" fill="#616161"/>
    <rect id="Rectangle_19" data-name="Rectangle 19" width="12" height="2" transform="translate(921 192)" fill="#616161"/>
    <g id="Path_16" data-name="Path 16" transform="translate(15 -90.731)" fill="#616161">
      <path d="M 912.2322998046875 291.3189086914062 C 910.0169067382812 291.3189086914062 907.8923950195312 290.2490844726562 905.9177856445312 288.1391296386719 L 905.618408203125 287.8192443847656 L 905.8961791992188 287.48046875 C 906.0061645507812 287.3462829589844 908.6337280273438 284.1944580078125 912.4002685546875 284.1944580078125 C 914.6220092773438 284.1944580078125 916.7462158203125 285.2936401367188 918.7138671875 287.46142578125 L 919.3334350585938 288.14404296875 L 918.592529296875 288.2637634277344 C 917.8084716796875 289.0953369140625 915.4120483398438 291.3189086914062 912.2322998046875 291.3189086914062 Z" stroke="none"/>
      <path d="M 912.2322998046875 290.8189086914062 C 915.798583984375 290.8189086914062 918.3259887695312 287.8003234863281 918.3436279296875 287.7974853515625 C 916.2310180664062 285.4699401855469 914.1871948242188 284.6944580078125 912.4002685546875 284.6944580078125 C 908.8270263671875 284.6944580078125 906.2828369140625 287.7974853515625 906.2828369140625 287.7974853515625 C 908.4039306640625 290.06396484375 910.4478149414062 290.8189086914062 912.2322998046875 290.8189086914062 M 912.2322998046875 291.8189086914062 C 909.8729858398438 291.8189086914062 907.6256713867188 290.69580078125 905.5526733398438 288.4808044433594 L 904.9539794921875 287.8410339355469 L 905.509521484375 287.1634521484375 C 905.6256713867188 287.0217895507812 908.3997802734375 283.6944580078125 912.4002685546875 283.6944580078125 C 914.7689208984375 283.6944580078125 917.0177001953125 284.8488159179688 919.0841064453125 287.1253662109375 L 920.3235473632812 288.4909057617188 L 918.8372192382812 288.7307739257812 C 917.906494140625 289.6834716796875 915.4585571289062 291.8189086914062 912.2322998046875 291.8189086914062 Z" stroke="none" fill="#fff"/>
    </g>
    <ellipse id="Ellipse_8" data-name="Ellipse 8" cx="2.307" cy="2.307" rx="2.307" ry="2.307" transform="translate(925.145 194.724)" fill="#fff"/>
    <path id="Path_47" data-name="Path 47" d="M1.648,0A1.648,1.648,0,1,1,0,1.648,1.648,1.648,0,0,1,1.648,0Z" transform="translate(925.804 195.383)" fill="#616161"/>
    <ellipse id="Ellipse_10" data-name="Ellipse 10" cx="0.659" cy="0.659" rx="0.659" ry="0.659" transform="translate(926.793 195.713)" fill="#fff"/>
  </g>
</svg>
