<svg xmlns="http://www.w3.org/2000/svg" width="17.768" height="18.006" viewBox="0 0 17.768 18.006">
  <path id="Path_10" data-name="Path 10" d="M514.745,173.732h2.46v2.46a3.408,3.408,0,0,0,1.291,2.338c1.291,1.135,3.39,3.4,3.39,3.4V185.8h3.558v-3.866l3.386-3.4a4.547,4.547,0,0,0,1.42-3.041c-.013-1.751,0-2.023,0-2.023h2.263l-4.273-5.676-3.82,5.676h2.247s.084,2.883-1.01,3.661a13.08,13.08,0,0,0-1.891,1.656l-2.089-1.656s-1.234-.588-.986-3.661c-.046-.019,2.369,0,2.369,0l-4.167-5.676Z" transform="translate(-514.745 -167.791)" fill="#616161"/>
</svg>
